<?xml version="1.0" standalone="no"?><!DOCTYPE svg PUBLIC "-//W3C//DTD SVG 1.1//EN" "http://www.w3.org/Graphics/SVG/1.1/DTD/svg11.dtd"><svg t="1631764391177" class="icon" viewBox="0 0 1024 1024" version="1.1" xmlns="http://www.w3.org/2000/svg" p-id="13217" data-spm-anchor-id="a313x.7781069.0.i15" xmlns:xlink="http://www.w3.org/1999/xlink" width="200" height="200"><defs><style type="text/css"></style></defs><path d="M887.466667 827.733333l-168.533334-226.133333c-12.8-17.066667-29.866667-25.6-51.2-25.6H445.866667l-8.533334-98.133333h177.066667c23.466667 0 42.666667-19.2 42.666667-42.666667s-19.2-42.666667-42.666667-42.666667h-185.6l-4.266667-44.8c-4.266667-46.933333-46.933333-78.933333-93.866666-74.666666-46.933333 4.266667-78.933333 46.933333-74.666667 93.866666l27.733333 279.466667c2.133333 32 29.866667 57.6 64 57.6h279.466667c6.4 0 12.8 2.133333 17.066667 8.533333l145.066666 194.133334c23.466667 32 70.4 34.133333 98.133334 4.266666 19.2-23.466667 19.2-57.6 0-83.2z m-576-597.333333c46.933333 0 83.2-38.4 83.2-83.2 0-46.933333-38.4-83.2-83.2-83.2-46.933333 0-83.2 38.4-83.2 83.2-2.133333 46.933333 36.266667 83.2 83.2 83.2z m34.133333 514.133333c-55.466667 0-100.266667-40.533333-104.533333-96l-19.2-192c-61.866667 53.333333-100.266667 130.133333-100.266667 217.6 0 157.866667 128 285.866667 285.866667 285.866667 108.8 0 204.8-61.866667 251.733333-153.6l-46.933333-61.866667H345.6z" p-id="13218" fill="#336666"></path></svg>