<?xml version="1.0" standalone="no"?><!DOCTYPE svg PUBLIC "-//W3C//DTD SVG 1.1//EN" "http://www.w3.org/Graphics/SVG/1.1/DTD/svg11.dtd"><svg t="1631764424327" class="icon" viewBox="0 0 1024 1024" version="1.1" xmlns="http://www.w3.org/2000/svg" p-id="14149" xmlns:xlink="http://www.w3.org/1999/xlink" width="200" height="200"><defs><style type="text/css"></style></defs><path d="M764 401.493333v-64a5.333333 5.333333 0 0 0-5.333333-5.333333h-14.453334a5.333333 5.333333 0 0 1-5.333333-5.333333 226.986667 226.986667 0 0 0-453.76 0 5.333333 5.333333 0 0 1-5.333333 5.333333h-14.4a5.333333 5.333333 0 0 0-5.333334 5.333333v64a5.333333 5.333333 0 0 0 5.333334 5.333334h77.226666a5.333333 5.333333 0 0 1 5.333334 5.333333V912a5.333333 5.333333 0 0 0 5.333333 5.333333h317.44a5.333333 5.333333 0 0 0 5.333333-5.333333V412.213333a5.333333 5.333333 0 0 1 5.333334-5.333333h77.226666a5.333333 5.333333 0 0 0 5.386667-5.386667zM512 713.386667a88.64 88.64 0 1 1 88.64-88.64A88.64 88.64 0 0 1 512 713.386667z" p-id="14150" fill="#336666"></path><path d="M723.52 498.986667m5.333333 0l64 0q5.333333 0 5.333334 5.333333l0 240.906667q0 5.333333-5.333334 5.333333l-64 0q-5.333333 0-5.333333-5.333333l0-240.906667q0-5.333333 5.333333-5.333333Z" p-id="14151" data-spm-anchor-id="a313x.7781069.0.i18" fill="#336666" class="selected"></path><path d="M842.666667 536.8m5.333333 0l64 0q5.333333 0 5.333333 5.333333l0 165.226667q0 5.333333-5.333333 5.333333l-64 0q-5.333333 0-5.333333-5.333333l0-165.226667q0-5.333333 5.333333-5.333333Z" p-id="14152" fill="#336666"></path><path d="M225.813333 498.986667m5.333334 0l64 0q5.333333 0 5.333333 5.333333l0 240.906667q0 5.333333-5.333333 5.333333l-64 0q-5.333333 0-5.333334-5.333333l0-240.906667q0-5.333333 5.333334-5.333333Z" p-id="14153" fill="#336666"></path><path d="M106.666667 536.8m5.333333 0l64 0q5.333333 0 5.333333 5.333333l0 165.226667q0 5.333333-5.333333 5.333333l-64 0q-5.333333 0-5.333333-5.333333l0-165.226667q0-5.333333 5.333333-5.333333Z" p-id="14154" fill="#336666"></path><path d="M512 624.746667m-66.08 0a66.08 66.08 0 1 0 132.16 0 66.08 66.08 0 1 0-132.16 0Z" p-id="14155" fill="#336666"></path></svg>