<?xml version="1.0" standalone="no"?><!DOCTYPE svg PUBLIC "-//W3C//DTD SVG 1.1//EN" "http://www.w3.org/Graphics/SVG/1.1/DTD/svg11.dtd"><svg t="1631764449386" class="icon" viewBox="0 0 1024 1024" version="1.1" xmlns="http://www.w3.org/2000/svg" p-id="14611" xmlns:xlink="http://www.w3.org/1999/xlink" width="200" height="200"><defs><style type="text/css"></style></defs><path d="M1002.666667 810.666667H938.666667v-158.293334a42.666667 42.666667 0 0 0-19.2-35.84l-85.333334-58.453333a24.32 24.32 0 0 0-11.946666-3.413333h-19.2a24.32 24.32 0 0 0-11.946667 3.413333l-64 42.666667V282.453333a42.666667 42.666667 0 0 0-18.773333-35.413333l-170.666667-115.626667a24.32 24.32 0 0 0-15.786667-3.413333h-19.2a24.32 24.32 0 0 0-11.946666 3.413333l-170.666667 115.2a42.666667 42.666667 0 0 0-21.333333 35.84v318.293334l-63.573334-42.666667a24.32 24.32 0 0 0-11.946666-3.413333h-19.2a24.32 24.32 0 0 0-11.946667 3.413333l-85.333333 58.453333a42.666667 42.666667 0 0 0-19.2 35.84V810.666667H21.333333a21.333333 21.333333 0 0 0-21.333333 21.333333v42.666667a21.333333 21.333333 0 0 0 21.333333 21.333333h981.333334a21.333333 21.333333 0 0 0 21.333333-21.333333v-42.666667a21.333333 21.333333 0 0 0-21.333333-21.333333zM256 789.333333a21.333333 21.333333 0 0 1-21.333333 21.333334h-42.666667a21.333333 21.333333 0 0 1-21.333333-21.333334v-42.666666a21.333333 21.333333 0 0 1 21.333333-21.333334h42.666667a21.333333 21.333333 0 0 1 21.333333 21.333334z m213.333333 0a21.333333 21.333333 0 0 1-21.333333 21.333334h-42.666667a21.333333 21.333333 0 0 1-21.333333-21.333334v-42.666666a21.333333 21.333333 0 0 1 21.333333-21.333334h42.666667a21.333333 21.333333 0 0 1 21.333333 21.333334z m0-170.666666a21.333333 21.333333 0 0 1-21.333333 21.333333h-42.666667a21.333333 21.333333 0 0 1-21.333333-21.333333v-42.666667a21.333333 21.333333 0 0 1 21.333333-21.333333h42.666667a21.333333 21.333333 0 0 1 21.333333 21.333333z m0-170.666667a21.333333 21.333333 0 0 1-21.333333 21.333333h-42.666667a21.333333 21.333333 0 0 1-21.333333-21.333333v-42.666667a21.333333 21.333333 0 0 1 21.333333-21.333333h42.666667a21.333333 21.333333 0 0 1 21.333333 21.333333z m170.666667 341.333333a21.333333 21.333333 0 0 1-21.333333 21.333334h-42.666667a21.333333 21.333333 0 0 1-21.333333-21.333334v-42.666666a21.333333 21.333333 0 0 1 21.333333-21.333334h42.666667a21.333333 21.333333 0 0 1 21.333333 21.333334z m0-170.666666a21.333333 21.333333 0 0 1-21.333333 21.333333h-42.666667a21.333333 21.333333 0 0 1-21.333333-21.333333v-42.666667a21.333333 21.333333 0 0 1 21.333333-21.333333h42.666667a21.333333 21.333333 0 0 1 21.333333 21.333333z m0-170.666667a21.333333 21.333333 0 0 1-21.333333 21.333333h-42.666667a21.333333 21.333333 0 0 1-21.333333-21.333333v-42.666667a21.333333 21.333333 0 0 1 21.333333-21.333333h42.666667a21.333333 21.333333 0 0 1 21.333333 21.333333z m213.333333 341.333333a21.333333 21.333333 0 0 1-21.333333 21.333334h-42.666667a21.333333 21.333333 0 0 1-21.333333-21.333334v-42.666666a21.333333 21.333333 0 0 1 21.333333-21.333334h42.666667a21.333333 21.333333 0 0 1 21.333333 21.333334z" p-id="14612" fill="#336666"></path></svg>