<?xml version="1.0" standalone="no"?><!DOCTYPE svg PUBLIC "-//W3C//DTD SVG 1.1//EN" "http://www.w3.org/Graphics/SVG/1.1/DTD/svg11.dtd"><svg t="1631775958406" class="icon" viewBox="0 0 1024 1024" version="1.1" xmlns="http://www.w3.org/2000/svg" p-id="2513" xmlns:xlink="http://www.w3.org/1999/xlink" width="200" height="200"><defs><style type="text/css"></style></defs><path d="M930.2 864.3h-30V399.4c0-72.8-55.1-134.4-120.1-134.4H599.8v565.8c0 16.8-15 33.6-30 33.6s-30-16.8-30-33.6v-633c0-72.8-55.1-134.4-120.1-134.4H244.4c-65.1 0-120.1 61.6-120.1 134.4v666.6h-30c-15 0-30 16.8-30 33.6s15 33.6 30 33.6h835.9c15 0 30-16.8 30-33.6s-15-33.7-30-33.7zM394.6 729.8H274.4c-15 0-30-16.8-30-33.6s15-33.6 30-33.6h120.1c15 0 30 16.8 30 33.6 0.1 22.4-14.9 33.6-29.9 33.6z m0-196H274.4c-20 0-30-16.8-30-33.6s15-33.6 30-33.6h120.1c15 0 30 16.8 30 33.6 0.1 16.8-14.9 33.6-29.9 33.6z m0-201.7H274.4c-20 0-30-16.8-30-33.6s15-33.6 30-33.6h120.1c15 0 30 16.8 30 33.6 0.1 16.8-14.9 33.6-29.9 33.6zM810 729.8H689.9c-15 0-30-16.8-30-33.6s15-33.6 30-33.6H810c15 0 30 16.8 30 33.6 0.1 22.4-14.9 33.6-30 33.6z m0-196H689.9c-15 0-30-16.8-30-33.6s15-33.6 30-33.6H810c15 0 30 16.8 30 33.6 0.1 16.8-14.9 33.6-30 33.6z" p-id="2514" data-spm-anchor-id="a313x.7781069.0.i1" fill="#336666" class="selected"></path></svg>