<?xml version="1.0" standalone="no"?><!DOCTYPE svg PUBLIC "-//W3C//DTD SVG 1.1//EN" "http://www.w3.org/Graphics/SVG/1.1/DTD/svg11.dtd"><svg t="1631760278806" class="icon" viewBox="0 0 1024 1024" version="1.1" xmlns="http://www.w3.org/2000/svg" p-id="662" xmlns:xlink="http://www.w3.org/1999/xlink" width="200" height="200"><defs><style type="text/css"></style></defs><path d="M979.50576 936.84c-70.64 0-127.752-57.12-127.752-127.76 0-126.696-92-231.704-212.92-251.952V425.84c36.592 0 56.144-43.088 32.048-70.624L372.80176 14.544a42.584 42.584 0 0 0-64.096 0L10.62576 355.2C-13.47824 382.744 6.08176 425.84 42.65776 425.84v298.08a42.584 42.584 0 0 0 42.584 42.592v212.92a42.584 42.584 0 1 0 85.168 0V766.504h42.584v212.92a42.584 42.584 0 1 0 85.16 0v-42.584h85.168v42.584a42.584 42.584 0 1 0 85.168 0V766.504h42.584v212.92a42.584 42.584 0 1 0 85.168 0V766.504a42.584 42.584 0 0 0 42.584-42.584v-79.816c73.52 18.88 127.744 85.512 127.744 164.984 0 117.672 95.248 212.92 212.92 212.92a42.584 42.584 0 0 0 0-85.168zM340.75376 107.248l204.24 233.424h-408.48l204.24-233.424zM553.67376 425.84v255.504h-425.84V425.832h425.84z m-170.336 425.84H298.16176V766.504h85.168v85.168z" fill="#336666" p-id="663"></path></svg>