<?xml version="1.0" standalone="no"?><!DOCTYPE svg PUBLIC "-//W3C//DTD SVG 1.1//EN" "http://www.w3.org/Graphics/SVG/1.1/DTD/svg11.dtd"><svg t="1631760447742" class="icon" viewBox="0 0 1024 1024" version="1.1" xmlns="http://www.w3.org/2000/svg" p-id="11590" xmlns:xlink="http://www.w3.org/1999/xlink" width="200" height="200"><defs><style type="text/css"></style></defs><path d="M906.976198 131.213564L528.80513 2.337137C524.242148 0.779046 518.121074 0 512 0s-12.242148 0.779046-16.80513 2.337137L117.023802 131.213564c-9.237257 3.116183-16.80513 13.800239-16.80513 23.593957v536.873818c0 9.793718 6.343658 22.703619 14.022823 28.824693L497.865884 1019.437018c3.895229 3.004891 8.90338 4.562982 14.022824 4.562982s10.238887-1.558092 14.022823-4.562982l383.624389-298.930986c7.679165-6.009782 14.022824-18.919683 14.022824-28.824693V154.807521c0.222585-9.793718-7.345289-20.366482-16.582546-23.593957zM715.108358 321.300728L478.501032 647.053146a17.918052 17.918052 0 0 1-28.935985 0l-140.673405-193.648516c-4.229106-5.898489 0-14.134116 7.233997-14.134116h61.433322c5.675905 0 11.129225 2.782306 14.467993 7.345289l72.006086 99.050103 167.940006-231.265297c3.338768-4.562982 8.680796-7.345289 14.467993-7.345289H707.874361c7.233996 0.111292 11.463102 8.346919 7.233997 14.245408z" p-id="11591" data-spm-anchor-id="a313x.7781069.0.i11" fill="#336666" class="selected"></path></svg>