<?xml version="1.0" standalone="no"?><!DOCTYPE svg PUBLIC "-//W3C//DTD SVG 1.1//EN" "http://www.w3.org/Graphics/SVG/1.1/DTD/svg11.dtd"><svg t="1631760301463" class="icon" viewBox="0 0 1024 1024" version="1.1" xmlns="http://www.w3.org/2000/svg" p-id="1334" xmlns:xlink="http://www.w3.org/1999/xlink" width="200" height="200"><defs><style type="text/css"></style></defs><path d="M145.87657 319.397248l113.906445-227.81289 97.632381 227.81289" fill="#336666" p-id="1335"></path><path d="M145.87657 319.397248l113.906445-227.81289-48.816191 227.81289" fill="#336666" p-id="1336"></path><path d="M129.604506 319.389248h244.080954v244.080953H129.604506z" fill="#336666" p-id="1337"></path><path d="M471.331841 286.84112m-81.362318 0a81.362318 81.362318 0 1 0 162.724636 0 81.362318 81.362318 0 1 0-162.724636 0Z" fill="#336666" p-id="1338"></path><path d="M471.321841 205.490803c-8.562033 0-16.658065 1.688007-24.408095 4.140016 32.924129 10.418041 56.952222 40.85216 56.952222 77.222302 0 36.372142-24.026094 66.804261-56.952222 77.222301 7.75203 2.45401 15.844062 4.142016 24.408095 4.142016 44.936176 0 81.362318-36.426142 81.362318-81.362317-0.002-44.938176-36.428142-81.364318-81.362318-81.364318z" fill="#336666" p-id="1339"></path><path d="M373.68746 384.485502h195.268762v179.004699h-195.268762z" fill="#336666" p-id="1340"></path><path d="M487.595905 384.485502h81.360317v179.004699h-81.360317z" fill="#336666" p-id="1341"></path><path d="M995.511889 549.530147l-115.05845 115.060449-230.116899-230.118899 115.06045-115.058449z" fill="#336666" p-id="1342"></path><path d="M878.12543 433.301693l2.314009 231.280903-230.124899-230.126899 115.06245-115.058449z" fill="#336666" p-id="1343"></path><path d="M764.222985 693.66071h244.080954v260.365017H764.222985z" fill="#336666" p-id="1344"></path><path d="M764.222985 693.66071h162.720636v260.365017h-162.720636z" fill="#336666" p-id="1345"></path><path d="M15.698061 563.480201v390.531526h211.538827c0-89.870351 72.854285-162.722636 162.722635-162.722636s162.722636 72.854285 162.722636 162.722636h211.538826V563.480201H15.698061z" fill="#336666" p-id="1346"></path><path d="M389.961523 563.480201H15.698061v390.531526h211.538827c0-89.870351 72.854285-162.722636 162.722635-162.722636" fill="#336666" p-id="1347"></path><path d="M889.265474 677.956648l128.436501-128.438501-252.324985-252.324986-137.260536 137.262536 113.324442 113.324443h-156.786612v-178.996699h-61.39624c27.096106-17.234067 45.126176-47.510186 45.126176-81.936321 0-53.516209-43.54217-97.058379-97.060379-97.058379-53.516209 0-97.058379 43.54217-97.058379 97.058379 0 5.748022 0.530002 11.370044 1.492006 16.846066h-7.988031L260.877019 54.290212 136.174532 303.697186H113.906445V547.78214H0v421.929648h242.934949v-15.698061c0-81.068317 65.954258-147.024574 147.024574-147.024575s147.024574 65.954258 147.024575 147.024575v15.698061h487.017902V677.956648h-134.736526z m-123.888484-336.361314l207.922812 207.922813-92.860363 92.862362-207.922812-207.924812 92.860363-92.860363z m106.238415 336.361314h-91.696358V586.26229l91.696358 91.694358z m-318.361244-130.176508h-163.86864V400.181563h163.86864v147.598577zM471.321841 221.188864c36.206141 0 65.664257 29.454115 65.664257 65.662257s-29.456115 65.664257-65.664257 65.664256c-36.204141 0-65.662256-29.456115-65.662256-65.664256s29.454115-65.662256 65.662256-65.662257z m-51.936203 147.596577h-30.000117V338.781323a97.800382 97.800382 0 0 0 30.000117 30.004118z m-160.700628-239.906938l74.922293 174.818683H171.276669l87.408341-174.818683zM145.302568 335.093309h212.68483v212.690831H145.302568V335.093309zM748.522924 938.313665h-180.826706c-7.976031-91.056356-84.644331-162.722636-177.736695-162.722635s-169.760663 71.66628-177.736694 162.722635H31.396123V579.178262H748.522924v359.135403z m244.084953 0H779.919047V709.354771H992.603877v228.958894h0.004z" fill="#336666" p-id="1348"></path></svg>